<svg xmlns="http://www.w3.org/2000/svg" width="130" height="130" style="">
  <!-- Created with Vector Paint - http://www.vectorpaint.yaks.com/ https://chrome.google.com/webstore/detail/hnbpdiengicdefcjecjbnjnoifekhgdo -->
  <g>
    <path fill="#ffffff" fill-opacity="1" stroke="#ffffff" stroke-opacity="1" stroke-width="2" stroke-dasharray="none" stroke-linejoin="round" stroke-linecap="butt" stroke-dashoffset="" fill-rule="nonzero" opacity="1" marker-start="" marker-mid="" marker-end="" d="M28.076919555664062,41.42307662963867 C28.076919555664062,24.5722479003569 41.72609082638229,10.923076629638672 58.57691955566406,10.923076629638672 C75.42774828494584,10.923076629638672 89.07691955566406,24.5722479003569 89.07691955566406,41.42307662963867 C89.07691955566406,58.273905358920445 75.42774828494584,71.92307662963867 58.57691955566406,71.92307662963867 C41.72609082638229,71.92307662963867 28.076919555664062,58.273905358920445 28.076919555664062,41.42307662963867 z" id="svg_1" class="selected"/>
    <path fill="#ffffff" fill-opacity="1" stroke="#ffffff" stroke-opacity="1" stroke-width="2" stroke-dasharray="none" stroke-linejoin="round" stroke-linecap="butt" stroke-dashoffset="" fill-rule="nonzero" opacity="1" marker-start="" marker-mid="" marker-end="" id="svg_6" d="M-6.899536613465216,86.68777573067445 " style="color: rgb(0, 0, 0);" class="selected"/>
    <path fill="#ffffff" fill-opacity="1" stroke="#ffffff" stroke-opacity="1" stroke-width="2" stroke-dasharray="none" stroke-linejoin="round" stroke-linecap="butt" stroke-dashoffset="" fill-rule="nonzero" opacity="1" marker-start="" marker-mid="" marker-end="" id="svg_10" d="M47.21810892739924,76.09954073354879 " style="color: rgb(0, 0, 0);" class="selected"/>
    <path fill="#ffffff" fill-opacity="1" stroke="#ffffff" stroke-opacity="1" stroke-width="2" stroke-dasharray="none" stroke-linejoin="round" stroke-linecap="butt" stroke-dashoffset="" fill-rule="nonzero" opacity="1" marker-start="" marker-mid="" marker-end="" id="svg_19" d="M50.51786,74.40587L47.36263,84.42308L66.29121,84.06594L63.79121,75.49451L70.93406,72.99451L79.86263,69.06594L82.00549,76.20879L102.00549,92.28022L13.86843,93.70879L32.61221,76.58315C34.43784,70.6279 34.71322,72.28883 35.04454,67.52118" style="color: rgb(0, 0, 0);" class="selected"/>
    <path fill="#ffffff" fill-opacity="1" stroke="#ffffff" stroke-opacity="1" stroke-width="2" stroke-dasharray="none" stroke-linejoin="round" stroke-linecap="butt" stroke-dashoffset="" fill-rule="nonzero" opacity="1" marker-start="" marker-mid="" marker-end="" id="svg_4" d="M105.2000045703876,99.67567153008343 " style="color: rgb(0, 0, 0);" class="selected"/>
    <path fill="#ffffff" fill-opacity="1" stroke="#ffffff" stroke-opacity="1" stroke-width="2" stroke-dasharray="none" stroke-linejoin="round" stroke-linecap="butt" stroke-dashoffset="" fill-rule="nonzero" opacity="1" marker-start="" marker-mid="" marker-end="" id="svg_2" d="M16.28108,91.02703C5.74054,91.02703 2.4973,103.45946 2.43243,103.24324C2.4973,103.45946 1.14595,133.72973 1.08108,133.51351C1.14595,133.72973 112.4973,133.45945 112.43243,133.24324C112.4973,133.45945 112.22703,103.72972 112.16216,103.51351C112.22703,103.72972 113.57838,94.27026 101.35135,91.08108" style="color: rgb(0, 0, 0);" class="selected"/>
  </g>
 </svg>